<svg width="91" height="16" viewBox="0 0 91 16" fill="none" xmlns="http://www.w3.org/2000/svg">
<path d="M0.4 15V0.599999H9.2V3.32H3.12V6.44H8V9.16H3.12V15H0.4ZM11.2055 15V0.599999H13.9255V15H11.2055ZM16.9234 15V0.599999H19.6834L25.9434 10.2V0.599999H28.7034V15H25.9434L19.6834 5.4V15H16.9234ZM30.4938 15L34.8938 0.599999H38.9538L43.3538 15H40.5538L36.6338 2.3H37.1538L33.2938 15H30.4938ZM33.1338 12V9.46H40.7338V12H33.1338ZM45.3461 15V0.599999H48.0661V12.46H54.2661V15H45.3461ZM60.7264 15.3C59.6064 15.3 58.6464 15.05 57.8464 14.55C57.0464 14.05 56.4331 13.37 56.0064 12.51C55.5797 11.65 55.3664 10.68 55.3664 9.6C55.3664 8.50667 55.5864 7.53 56.0264 6.67C56.4731 5.81 57.0997 5.13333 57.9064 4.64C58.7131 4.14667 59.6664 3.9 60.7664 3.9C62.0397 3.9 63.1064 4.22333 63.9664 4.87C64.8331 5.51 65.3864 6.38667 65.6264 7.5L62.9064 8.22C62.7464 7.66 62.4664 7.22333 62.0664 6.91C61.6731 6.59667 61.2264 6.44 60.7264 6.44C60.1531 6.44 59.6831 6.58 59.3164 6.86C58.9497 7.13333 58.6797 7.51 58.5064 7.99C58.3331 8.46333 58.2464 9 58.2464 9.6C58.2464 10.54 58.4531 11.3033 58.8664 11.89C59.2864 12.47 59.9064 12.76 60.7264 12.76C61.3397 12.76 61.8064 12.62 62.1264 12.34C62.4464 12.06 62.6864 11.66 62.8464 11.14L65.6264 11.72C65.3197 12.8667 64.7397 13.75 63.8864 14.37C63.0331 14.99 61.9797 15.3 60.7264 15.3ZM71.6466 15.32C70.7999 15.32 70.1099 15.1767 69.5766 14.89C69.0432 14.6033 68.6266 14.24 68.3266 13.8C68.0332 13.36 67.8232 12.9033 67.6966 12.43C67.5699 11.95 67.4932 11.5133 67.4666 11.12C67.4399 10.7267 67.4266 10.44 67.4266 10.26V4.2H70.1866V9.3C70.1866 9.54667 70.1999 9.86333 70.2266 10.25C70.2532 10.63 70.3366 11.0133 70.4766 11.4C70.6166 11.7867 70.8432 12.11 71.1566 12.37C71.4766 12.63 71.9266 12.76 72.5066 12.76C72.7399 12.76 72.9899 12.7233 73.2566 12.65C73.5232 12.5767 73.7732 12.4367 74.0066 12.23C74.2399 12.0167 74.4299 11.7067 74.5766 11.3C74.7299 10.8867 74.8066 10.3467 74.8066 9.68L76.3666 10.42C76.3666 11.2733 76.1932 12.0733 75.8466 12.82C75.4999 13.5667 74.9766 14.17 74.2766 14.63C73.5832 15.09 72.7066 15.32 71.6466 15.32ZM75.1466 15V11.42H74.8066V4.2H77.5466V15H75.1466ZM83.6814 15V3.14H79.1414V0.599999H90.9414V3.14H86.4014V15H83.6814Z" fill="#DD8E8A"/>
</svg>
